<svg width="32.000000" height="32.000000" viewBox="0 0 32 32" fill="none" xmlns="http://www.w3.org/2000/svg" xmlns:xlink="http://www.w3.org/1999/xlink">
	<desc>
			Created with Pixso.
	</desc>
	<defs>
		<clipPath id="clip7_2314">
			<rect id="iconixto/linear/close" rx="0.000000" width="23.000000" height="23.000000" transform="translate(4.500000 4.500000)" fill="white" fill-opacity="0"/>
		</clipPath>
	</defs>
	<rect id="Icn button" rx="15.500000" width="31.000000" height="31.000000" transform="translate(0.500000 0.500000)" fill="#8B8B8B" fill-opacity="0.480000"/>
	<rect id="iconixto/linear/close" rx="0.000000" width="23.000000" height="23.000000" transform="translate(4.500000 4.500000)" fill="#FFFFFF" fill-opacity="0"/>
	<g clip-path="url(#clip7_2314)">
		<path id="icon" d="M10.53 9.46C10.23 9.17 9.76 9.17 9.46 9.46C9.17 9.76 9.17 10.23 9.46 10.53L14.93 16L9.46 21.46C9.17 21.76 9.17 22.23 9.46 22.53C9.76 22.82 10.23 22.82 10.53 22.53L16 17.06L21.46 22.53C21.76 22.82 22.23 22.82 22.53 22.53C22.82 22.23 22.82 21.76 22.53 21.46L17.06 16L22.53 10.53C22.82 10.23 22.82 9.76 22.53 9.46C22.23 9.17 21.76 9.17 21.46 9.46L16 14.93L10.53 9.46Z" fill="#FFFFFF" fill-opacity="1.000000" fill-rule="nonzero"/>
	</g>
</svg>
