<svg width="18.502625" height="18.926636" viewBox="0 0 18.5026 18.9266" fill="none" xmlns="http://www.w3.org/2000/svg" xmlns:xlink="http://www.w3.org/1999/xlink">
	<desc>
			Created with Pixso.
	</desc>
	<defs/>
	<path id="icon" d="M10.01 0.34C9.61 -0.12 8.89 -0.12 8.49 0.34L7.93 1C7.64 1.33 7.17 1.44 6.77 1.26L5.98 0.92C5.41 0.67 4.77 0.98 4.61 1.58L4.39 2.41C4.27 2.83 3.9 3.14 3.46 3.15L2.59 3.18C1.98 3.2 1.53 3.77 1.65 4.37L1.81 5.22C1.89 5.65 1.68 6.08 1.29 6.29L0.53 6.69C-0.01 6.98 -0.17 7.68 0.19 8.17L0.7 8.86C0.97 9.22 0.97 9.7 0.7 10.05L0.19 10.75C-0.17 11.24 -0.01 11.94 0.53 12.23L1.29 12.63C1.68 12.83 1.89 13.27 1.81 13.7L1.65 14.55C1.53 15.15 1.98 15.71 2.59 15.73L3.46 15.76C3.9 15.78 4.27 16.08 4.39 16.51L4.61 17.34C4.77 17.93 5.41 18.25 5.98 18L6.77 17.65C7.17 17.48 7.64 17.58 7.93 17.92L8.49 18.57C8.89 19.04 9.61 19.04 10.01 18.57L10.57 17.92C10.85 17.58 11.32 17.48 11.73 17.65L12.52 18C13.08 18.25 13.73 17.93 13.88 17.34L14.11 16.51C14.22 16.08 14.6 15.78 15.04 15.76L15.9 15.73C16.51 15.71 16.96 15.15 16.85 14.55L16.68 13.7C16.6 13.27 16.81 12.83 17.2 12.63L17.96 12.23C18.51 11.94 18.67 11.24 18.3 10.75L17.79 10.05C17.53 9.7 17.53 9.22 17.79 8.86L18.3 8.17C18.67 7.68 18.51 6.98 17.96 6.69L17.2 6.29C16.81 6.08 16.6 5.65 16.68 5.22L16.85 4.37C16.96 3.77 16.51 3.2 15.9 3.18L15.04 3.15C14.6 3.14 14.22 2.83 14.11 2.41L13.88 1.58C13.73 0.98 13.08 0.67 12.52 0.92L11.73 1.26C11.32 1.44 10.85 1.33 10.57 1L10.01 0.34ZM13.28 6.43C13.57 6.72 13.57 7.2 13.28 7.49L8.28 12.49C7.98 12.78 7.51 12.78 7.22 12.49L5.22 10.49C4.92 10.2 4.92 9.72 5.22 9.43C5.51 9.14 5.98 9.14 6.28 9.43L7.75 10.9L12.22 6.43C12.51 6.14 12.98 6.14 13.28 6.43Z" fill="#5288C1" fill-opacity="1.000000" fill-rule="evenodd"/>
</svg>
