<svg width="15.000000" height="16.404907" viewBox="0 0 15 16.4049" fill="none" xmlns="http://www.w3.org/2000/svg" xmlns:xlink="http://www.w3.org/1999/xlink">
	<desc>
			Created with Pixso.
	</desc>
	<defs/>
	<path id="icon" d="M0 7.5C0.37 11.22 2.78 14.37 6.27 16.12C7.04 16.51 7.95 16.49 8.7 16.08C11.94 14.32 14.62 11.19 15 7.5C15 3.35 11.64 0 7.5 0C3.35 0 0 3.35 0 7.5ZM6.83 15C7.23 15.21 7.71 15.2 8.1 14.98C11.07 13.37 13.4 10.57 13.74 7.43C13.71 4.01 10.93 1.25 7.5 1.25C4.06 1.25 1.28 4.01 1.25 7.43C1.59 10.64 3.69 13.43 6.83 15ZM7.5 10.83C9.34 10.83 10.83 9.34 10.83 7.5C10.83 5.65 9.34 4.16 7.5 4.16C5.65 4.16 4.16 5.65 4.16 7.5C4.16 9.34 5.65 10.83 7.5 10.83ZM7.5 9.58C8.65 9.58 9.58 8.65 9.58 7.5C9.58 6.34 8.65 5.41 7.5 5.41C6.34 5.41 5.41 6.34 5.41 7.5C5.41 8.65 6.34 9.58 7.5 9.58Z" fill="#8B8B8B" fill-opacity="1.000000" fill-rule="evenodd"/>
</svg>
