<svg width="20.000000" height="16.250000" viewBox="0 0 20 16.25" fill="none" xmlns="http://www.w3.org/2000/svg" xmlns:xlink="http://www.w3.org/1999/xlink">
	<desc>
			Created with Pixso.
	</desc>
	<defs/>
	<path id="icon" d="M16 0C16.41 0 16.75 0.33 16.75 0.75L16.75 2L18 2C18.41 2 18.75 2.33 18.75 2.75C18.75 3.16 18.41 3.5 18 3.5L16.75 3.5L16.75 4.75C16.75 5.16 16.41 5.5 16 5.5C15.58 5.5 15.25 5.16 15.25 4.75L15.25 3.5L14 3.5C13.58 3.5 13.25 3.16 13.25 2.75C13.25 2.33 13.58 2 14 2L15.25 2L15.25 0.75C15.25 0.33 15.58 0 16 0ZM1.5 12.25C1.5 12.63 1.58 13 1.74 13.32L3.93 10.31C4.94 8.92 7.03 9.02 7.91 10.49C8.3 11.12 9.24 11.04 9.51 10.35L10.61 7.51C11.32 5.7 13.8 5.51 14.78 7.19L18.29 13.25C18.42 12.94 18.5 12.6 18.5 12.25L18.5 5C18.5 4.58 18.83 4.25 19.25 4.25C19.66 4.25 20 4.58 20 5L20 12.25C20 14.45 18.2 16.25 16 16.25L4 16.25C1.79 16.25 0 14.45 0 12.25L0 4.25C0 2.04 1.79 0.25 4 0.25L12.25 0.25C12.66 0.25 13 0.58 13 1C13 1.41 12.66 1.75 12.25 1.75L4 1.75C2.61 1.75 1.5 2.86 1.5 4.25L1.5 12.25ZM5.5 6.25C6.32 6.25 7 5.57 7 4.75C7 3.92 6.32 3.25 5.5 3.25C4.67 3.25 4 3.92 4 4.75C4 5.57 4.67 6.25 5.5 6.25ZM13.48 7.94C13.14 7.35 12.26 7.42 12.01 8.06L10.91 10.89C10.19 12.75 7.65 12.96 6.63 11.26C6.3 10.71 5.52 10.68 5.14 11.19L2.79 14.43C3.14 14.63 3.56 14.75 4 14.75L16 14.75C16.44 14.75 16.87 14.63 17.23 14.42L13.48 7.94Z" fill="#1B1B1D" fill-opacity="1.000000" fill-rule="evenodd"/>
</svg>
